HIERARCHY
ROOT Hips
{
	OFFSET 0.00000 0.00000 0.00000
	CHANNELS 6 Xposition Yposition Zposition Zrotation Yrotation Xrotation 
	JOINT LHipJoint
	{
		OFFSET 0 0 0
		CHANNELS 3 Zrotation Yrotation Xrotation
		JOINT LeftUpLeg
		{
			OFFSET 1.28858 -1.83292 1.03970
			CHANNELS 3 Zrotation Yrotation Xrotation
			JOINT LeftLeg
			{
				OFFSET 2.47846 -6.80952 0.00000
				CHANNELS 3 Zrotation Yrotation Xrotation
				JOINT LeftFoot
				{
					OFFSET 2.75274 -7.56311 0.00000
					CHANNELS 3 Zrotation Yrotation Xrotation
					JOINT LeftToeBase
					{
						OFFSET 0.12848 -0.35301 1.68223
						CHANNELS 3 Zrotation Yrotation Xrotation
						End Site
						{
							OFFSET 0.00000 -0.00000 0.87311
						}
					}
				}
			}
		}
	}
	JOINT RHipJoint
	{
		OFFSET 0 0 0
		CHANNELS 3 Zrotation Yrotation Xrotation
		JOINT RightUpLeg
		{
			OFFSET -1.31183 -1.83292 1.03970
			CHANNELS 3 Zrotation Yrotation Xrotation
			JOINT RightLeg
			{
				OFFSET -2.44740 -6.72417 0.00000
				CHANNELS 3 Zrotation Yrotation Xrotation
				JOINT RightFoot
				{
					OFFSET -2.67343 -7.34519 0.00000
					CHANNELS 3 Zrotation Yrotation Xrotation
					JOINT RightToeBase
					{
						OFFSET -0.16914 -0.46471 1.77626
						CHANNELS 3 Zrotation Yrotation Xrotation
						End Site
						{
							OFFSET -0.00000 -0.00000 0.92777
						}
					}
				}
			}
		}
	}
	JOINT LowerBack
	{
		OFFSET 0 0 0
		CHANNELS 3 Zrotation Yrotation Xrotation
		JOINT Spine
		{
			OFFSET 0.01249 2.14252 0.03842
			CHANNELS 3 Zrotation Yrotation Xrotation
			JOINT Spine1
			{
				OFFSET -0.02957 2.14199 -0.03751
				CHANNELS 3 Zrotation Yrotation Xrotation
				JOINT Neck
				{
					OFFSET 0 0 0
					CHANNELS 3 Zrotation Yrotation Xrotation
					JOINT Neck1
					{
						OFFSET -0.01678 1.65709 -0.05476
						CHANNELS 3 Zrotation Yrotation Xrotation
						JOINT Head
						{
							OFFSET 0.07912 1.58331 -0.11843
							CHANNELS 3 Zrotation Yrotation Xrotation
							End Site
							{
								OFFSET 0.03298 1.73940 -0.04271
							}
						}
					}
				}
				JOINT LeftShoulder
				{
					OFFSET 0 0 0
					CHANNELS 3 Zrotation Yrotation Xrotation
					JOINT LeftArm
					{
						OFFSET 3.39556 1.16496 0.08673
						CHANNELS 3 Zrotation Yrotation Xrotation
						JOINT LeftForeArm
						{
							OFFSET 5.23910 -0.00000 -0.00000
							CHANNELS 3 Zrotation Yrotation Xrotation
							JOINT LeftHand
							{
								OFFSET 3.31467 -0.00000 0.00000
								CHANNELS 3 Zrotation Yrotation Xrotation
								JOINT LeftFingerBase
								{
									OFFSET 0 0 0
									CHANNELS 3 Zrotation Yrotation Xrotation
									JOINT LeftHandIndex1
									{
										OFFSET 0.96590 -0.00000 0.00000
										CHANNELS 3 Zrotation Yrotation Xrotation
										End Site
										{
											OFFSET 0.77873 -0.00000 0.00000
										}
									}
								}
								JOINT LThumb
								{
									OFFSET 0 0 0
									CHANNELS 3 Zrotation Yrotation Xrotation
									End Site
									{
										OFFSET 0.79062 -0.00000 0.79062
									}
								}
							}
						}
					}
				}
				JOINT RightShoulder
				{
					OFFSET 0 0 0
					CHANNELS 3 Zrotation Yrotation Xrotation
					JOINT RightArm
					{
						OFFSET -3.27193 1.31331 0.33940
						CHANNELS 3 Zrotation Yrotation Xrotation
						JOINT RightForeArm
						{
							OFFSET -5.30252 -0.00000 0.00000
							CHANNELS 3 Zrotation Yrotation Xrotation
							JOINT RightHand
							{
								OFFSET -3.67875 -0.00000 0.00000
								CHANNELS 3 Zrotation Yrotation Xrotation
								JOINT RightFingerBase
								{
									OFFSET 0 0 0
									CHANNELS 3 Zrotation Yrotation Xrotation
									JOINT RightHandIndex1
									{
										OFFSET -0.59481 -0.00000 0.00000
										CHANNELS 3 Zrotation Yrotation Xrotation
										End Site
										{
											OFFSET -0.47955 -0.00000 0.00000
										}
									}
								}
								JOINT RThumb
								{
									OFFSET 0 0 0
									CHANNELS 3 Zrotation Yrotation Xrotation
									End Site
									{
										OFFSET -0.48687 -0.00000 0.48687
									}
								}
							}
						}
					}
				}
			}
		}
	}
}
MOTION
Frames: 14
Frame Time: 0.0120482
0.00 0.00 0.00 0 0 0 0 0 0 -21 0 0 0 0 0 0 0 0 0 0 0 0 0 0 21 0 0 0 0 0 0 0 0 0 0 0 0 0 0 0 0 0 0 0 0 0 0 -16 0 0 21 0 0 11 0 0 0 -8 0 0 0 0 0 0 0 0 0 0 0 0 0 0 0 0 0 0 0 0 8 0 0 0 0 0 0 0 0 0 0 0 0 0 0 0 0 0
0.00 0.00 0.00 1.7643 2.7107 2.9399 0.0000 0.0000 0.0000 -10.6133 0.5757 -8.5357 0.3496 3.7991 10.5122 0.1126 -3.2194 -6.0361 3.0733 10.8128 31.6511 0.0000 0.0000 0.0000 19.7046 3.0236 3.5329 -0.0175 -0.8546 2.3489 -0.7692 -16.9273 -29.9866 -0.3151 -3.6087 9.9782 4.8917 0.1240 -2.6703 0.3741 -0.0652 2.3263 -2.3598 0.0980 3.9005 -3.1368 -2.3582 -0.1046 2.6733 -3.5579 23.2695 1.1873 -1.7405 7.2305 -0.0000 0.0000 0.0000 -81.8374 -1.8394 38.1390 13.5902 -22.1458 -2.6717 -0.0000 0.0000 -14.0784 10.4358 -17.4086 -3.1540 -7.1250 0.0000 -0.0000 -11.5391 12.5587 8.9414 -0.0000 0.0000 0.0000 81.4726 -6.9585 18.9216 -14.7066 23.7358 -3.1069 0.0000 0.0000 0.5945 -6.4520 -36.4598 3.8447 7.1250 -0.0000 -0.0000 33.8390 -63.4428 -16.0549
0.00 0.00 0.00 1.6642 -3.1901 3.3373 0.0000 0.0000 0.0000 -14.8432 -2.5116 -18.0198 1.6536 8.1038 23.0297 -0.2652 -9.6588 0.0412 4.4306 12.7124 38.3012 0.0000 0.0000 0.0000 12.8133 1.6461 4.8375 -0.9762 -6.2897 17.6272 -2.3457 -9.2884 -33.4192 -0.3412 3.7533 -10.3836 -0.6839 -0.4857 -1.3556 -1.6289 -0.5729 2.9557 -1.3206 -0.2797 3.7905 -10.1087 -14.1805 10.8245 6.6243 -19.8609 -2.8912 4.4269 -10.0269 -1.0157 -0.0000 -0.0000 0.0000 -77.7271 2.4724 13.3979 10.1571 -16.9849 -1.5205 -0.0000 0.0000 -8.5033 12.9427 -12.6710 -2.8859 -7.1250 0.0000 -0.0000 -9.9144 17.1086 6.6602 -0.0000 -0.0000 0.0000 81.4328 -3.9874 32.6144 -16.2743 25.8911 -3.7649 0.0000 -0.0000 -1.9519 -8.0775 -36.2678 4.7990 7.1250 -0.0000 -0.0000 31.9405 -63.7177 -15.2611
0.00 0.00 0.00 1.1276 -5.6060 2.8945 0.0000 0.0000 0.0000 -16.3585 -2.2558 -12.8838 1.3355 7.3175 20.6595 -0.1696 -10.1580 -3.8478 4.1700 12.3832 37.1016 0.0000 0.0000 0.0000 9.9541 1.2727 -3.9304 -3.4551 -11.3977 33.6331 -0.5570 -11.2491 -22.3209 -0.0052 -0.4665 1.2818 -2.3851 -0.6168 -1.6671 -1.8013 -0.6717 3.0914 -0.5563 -0.3796 4.1269 -9.6841 -13.7671 10.3136 6.4492 -19.2324 -2.2101 4.2254 -9.7196 -0.8189 -0.0000 -0.0000 0.0000 -77.8324 2.0119 16.8542 11.2097 -18.6089 -1.8423 -0.0000 0.0000 -10.4036 14.0923 -12.4269 -3.0923 -7.1250 0.0000 -0.0000 -9.1241 17.2786 6.0803 -0.0000 -0.0000 0.0000 80.9967 -3.6028 31.7050 -17.4819 27.4887 -4.3074 0.0000 -0.0000 -0.5950 -7.2477 -35.1899 4.1917 7.1250 -0.0000 -0.0000 31.5562 -62.6028 -14.2360
0.00 0.00 0.00 -0.7886 -6.7972 4.4826 0.0000 0.0000 0.0000 -16.5984 -0.5654 -0.8392 0.2190 3.0129 8.3145 -0.0064 -10.0307 -6.9255 3.2689 11.1181 32.6791 0.0000 0.0000 0.0000 13.2309 7.2233 -16.2414 -1.2272 -7.0258 19.7920 -0.6564 -7.8854 -20.1505 -0.0321 -1.1569 3.1807 -5.3884 -1.5777 -1.9941 -2.0910 -1.8430 2.3132 0.7620 -1.0289 3.6123 -8.3996 -11.0073 7.7619 8.5999 -15.3204 0.5954 4.4449 -7.8253 0.2788 0.0000 -0.0000 0.0000 -74.6663 -5.3023 29.0951 15.1368 -24.3364 -3.2821 -0.0000 0.0000 -14.3109 15.1309 -12.8776 -3.4487 -7.1250 0.0000 -0.0000 -8.4028 16.7462 5.6873 0.0000 -0.0000 0.0000 81.2329 -7.6697 31.8033 -17.5772 27.6123 -4.3515 0.0000 -0.0000 -0.2767 -6.9709 -34.9958 4.0112 7.1250 -0.0000 -0.0000 31.6250 -62.3697 -14.0967
0.00 0.00 0.00 -3.2649 2.4138 5.7349 0.0000 0.0000 0.0000 -12.4394 -3.2353 0.2191 1.4503 7.6125 21.5431 -0.9724 -20.5414 -4.5500 4.4774 12.7700 38.5134 0.0000 0.0000 0.0000 20.1844 3.8756 -10.5775 -0.4315 -4.2155 11.6837 -0.2785 -8.1328 -16.0612 -0.0001 -0.0497 0.1364 4.1979 -1.3282 -1.5711 0.9730 -1.8990 1.3286 -1.4140 -0.8904 2.1441 -2.1178 -3.0803 0.7640 1.9559 -4.1886 5.7327 0.9103 -2.0963 1.7467 0.0000 0.0000 0.0000 -78.2120 2.5538 36.6882 17.0587 -26.9351 -4.1139 -0.0000 0.0000 -10.6704 9.9294 -14.9908 -2.5926 -7.1250 0.0000 -0.0000 -11.9137 14.9920 8.6176 0.0000 0.0000 0.0000 79.0123 -11.5243 20.1289 -12.8130 21.0126 -2.3858 0.0000 0.0000 4.5161 -5.1093 -36.2497 3.0264 7.1250 -0.0000 -0.0000 34.9460 -62.9195 -16.2188
0.00 0.00 0.00 -2.5419 6.7480 6.5143 0.0000 0.0000 0.0000 -10.6623 -4.1825 -10.5893 4.4433 12.7280 38.3585 -0.5530 -13.0418 4.6412 5.0345 13.4225 40.9714 0.0000 0.0000 0.0000 20.0899 2.3484 -10.0031 -0.4352 -4.2334 11.7342 -0.4494 -9.4589 -19.4432 -0.0003 -0.1191 0.3272 5.1264 -1.6158 0.3570 1.4596 -2.1975 1.7155 -1.3865 -1.0382 1.4299 -1.7751 -3.6175 1.6222 1.2649 -4.8624 2.7733 0.6679 -2.4382 0.6552 -0.0000 -0.0000 0.0000 -74.0426 2.2441 41.1579 21.3051 -32.1827 -6.2116 -0.0000 0.0000 -8.5822 6.7744 -15.1608 -1.7794 -7.1250 0.0000 -0.0000 -14.0141 15.0181 10.2193 -0.0000 -0.0000 0.0000 76.7739 -11.3979 26.4055 -16.9479 26.7890 -4.0638 0.0000 0.0000 4.6035 -7.5664 -35.4664 4.4072 7.1250 -0.0000 -0.0000 31.5386 -62.9160 -14.4593
0.00 0.00 0.00 2.4711 6.7971 9.1308 0.0000 0.0000 0.0000 -14.8035 -2.2033 -31.3148 7.1052 15.4199 49.2712 -0.1694 -7.3287 1.7516 3.2824 11.1388 32.7493 0.0000 0.0000 0.0000 12.8126 1.7912 -22.4791 -2.2674 -9.4021 27.0615 0.1448 -11.3386 -13.8477 -0.0069 0.5367 -1.4748 3.7547 -0.3489 8.8863 0.4883 -0.1784 5.4955 -1.5888 -0.0007 0.7099 -1.9833 -4.4491 5.5988 1.6703 -6.0155 -6.8191 1.1422 -3.0035 -3.0472 0.0000 -0.0000 0.0000 -63.2603 -16.4206 54.6313 43.0821 -49.7936 -20.7634 -0.0000 0.0000 -6.9546 8.1409 -16.6662 -2.3493 -7.1250 0.0000 -0.0000 -13.0582 13.4613 9.9263 0.0000 -0.0000 0.0000 61.3148 1.1304 56.1290 -43.3150 49.9158 -20.9415 0.0000 0.0000 5.4464 -13.9625 -30.9151 7.2795 7.1250 -0.0000 -0.0000 20.4755 -60.4803 -7.9230
0.00 0.00 0.00 5.4008 4.3664 12.0935 0.0000 0.0000 0.0000 -18.9418 -2.0491 -39.5839 6.2844 14.6984 46.1129 -0.0835 -5.3191 0.3933 2.4764 9.7950 28.3153 0.0000 0.0000 0.0000 7.7544 1.6449 -39.1910 -5.8447 -14.2762 44.3553 0.7202 -14.9717 -7.7979 -0.1684 -2.6434 7.2875 1.3439 0.0985 12.9596 -0.6466 0.2845 6.3885 -1.4664 0.1875 -0.5567 -1.7501 -4.1851 5.5832 1.6776 -5.6560 -10.0260 1.1702 -2.8183 -4.1829 0.0000 0.0000 0.0000 -58.2177 -28.5908 60.2568 56.3921 -55.2693 -31.3570 -0.0000 0.0000 -6.8920 9.8296 -19.1592 -3.2545 -7.1250 0.0000 -0.0000 -11.9250 10.8768 9.6780 0.0000 0.0000 0.0000 54.3613 13.8042 65.8896 -55.5474 55.0017 -30.6639 0.0000 0.0000 8.3158 -13.3809 -27.5770 6.2844 7.1250 -0.0000 -0.0000 18.7018 -57.2148 -5.7315
0.00 0.00 0.00 6.1685 3.5711 15.1622 0.0000 0.0000 0.0000 -19.6433 -3.6481 -50.4579 7.1219 15.4337 49.3340 -0.0871 -5.2388 1.5173 2.9805 10.6634 31.1528 0.0000 0.0000 0.0000 6.4265 2.2292 -55.4896 -10.6321 -17.7503 61.5809 0.3272 -11.3431 -9.7319 -0.0030 -0.3522 0.9676 -0.1432 0.1047 16.5456 -0.9066 0.1045 6.9165 -0.8892 0.0720 -1.9134 -2.2811 -3.9877 3.6841 2.1618 -5.3661 -12.7622 1.4216 -2.6639 -4.7750 0.0000 -0.0000 0.0000 -48.3826 -45.8424 62.4497 76.9187 -59.3434 -48.6962 -0.0000 0.0000 -6.1473 15.1471 -22.1269 -5.8219 -7.1250 0.0000 -0.0000 -8.6103 7.3492 7.5259 0.0000 -0.0000 0.0000 47.0905 29.9671 71.6098 -72.8316 58.8564 -45.1888 0.0000 0.0000 11.1397 -14.7625 -25.3156 6.4289 7.1250 -0.0000 -0.0000 15.9686 -55.3274 -4.1253
0.00 0.00 0.00 4.7705 4.4681 15.9920 0.0000 0.0000 0.0000 -16.7702 -5.8906 -60.6053 10.9945 17.9324 62.7639 -0.2145 -9.5832 -1.8220 3.6050 11.6154 34.3847 0.0000 0.0000 0.0000 8.7426 3.4755 -65.9616 -15.6797 -19.5465 77.2760 -0.0890 -7.9982 -13.0706 -0.0287 1.0932 -3.0052 -0.5871 0.0244 19.7933 -0.2356 -0.0538 7.8012 0.0944 -0.0177 -2.6549 -1.9148 -3.9614 2.1342 2.6513 -5.2105 -16.9353 1.4119 -2.6315 -5.3204 0.0000 -0.0000 0.0000 -31.7980 -63.9380 53.7610 95.4491 -59.8875 -64.7172 -0.0000 0.0000 -5.5887 22.0208 -24.9307 -9.6750 -7.1250 0.0000 -0.0000 -4.5701 3.4231 4.3030 0.0000 -0.0000 0.0000 40.2364 45.2369 69.5832 -89.3912 59.9986 -59.4728 0.0000 0.0000 13.1710 -15.5955 -22.8796 6.1935 7.1250 -0.0000 -0.0000 13.9361 -53.1006 -2.8206
0.00 0.00 0.00 4.7554 4.6644 16.1605 0.0000 0.0000 0.0000 -16.5304 -6.4402 -61.9384 11.7309 18.2745 65.1331 -0.2506 -11.0207 -3.0007 3.5159 11.4867 33.9396 0.0000 0.0000 0.0000 8.7799 3.5690 -67.1988 -16.5881 -19.7186 79.9793 0.1228 -19.7711 -26.9905 -0.0243 1.0061 -2.7657 -0.7458 -0.0542 20.0547 -0.2272 -0.1838 7.8503 0.2217 -0.0833 -2.7342 -1.8465 -3.8647 1.8089 2.7193 -5.0562 -17.1993 1.4116 -2.5628 -5.3505 -0.0000 -0.0000 0.0000 -28.3555 -65.8621 51.0973 97.3285 -59.7961 -66.3423 -0.0000 0.0000 -5.5525 22.7984 -25.3704 -10.2094 -7.1250 0.0000 -0.0000 -4.1467 2.8209 3.9481 -0.0000 -0.0000 0.0000 39.5154 47.1127 69.0217 -91.1259 59.9952 -60.9750 0.0000 0.0000 13.2349 -15.3236 -22.7034 6.0370 7.1250 -0.0000 -0.0000 14.1259 -52.8783 -2.7826
0.00 0.00 0.00 4.7803 4.8942 16.3919 0.0000 0.0000 0.0000 -16.2892 -7.0662 -63.4065 12.5115 18.5986 67.6013 -0.2732 -12.3533 -4.2617 3.4050 11.3235 33.3788 0.0000 0.0000 0.0000 8.7281 3.6686 -68.5455 -17.6686 -19.8692 83.1692 0.1939 -30.9561 -42.3384 -0.0265 1.0516 -2.8908 -0.9346 -0.1452 20.2739 -0.2234 -0.3358 7.8710 0.3669 -0.1598 -2.8208 -1.7673 -3.7746 1.5551 2.7872 -4.9111 -17.5261 1.4130 -2.4996 -5.4125 0.0000 0.0000 0.0000 -24.4979 -67.6731 47.9589 99.0331 -59.6894 -67.8147 -0.0000 0.0000 -5.5078 23.5070 -25.8653 -10.7443 -7.1250 0.0000 -0.0000 -3.7778 2.1671 3.6402 0.0000 0.0000 0.0000 38.8007 48.9656 68.3981 -92.7840 59.9707 -62.4107 0.0000 0.0000 13.2414 -15.0166 -22.6555 5.8995 7.1250 -0.0000 -0.0000 14.4068 -52.7768 -2.8036
0.00 0.00 0.00 4.8121 5.0942 16.6422 0.0000 0.0000 0.0000 -16.0280 -7.6827 -64.9840 13.3255 18.8965 70.1333 -0.2749 -13.5186 -5.5887 3.3176 11.1922 32.9308 0.0000 0.0000 0.0000 8.6200 3.8277 -69.9580 -18.6784 -19.9581 86.1333 -1.7724 -41.0494 -60.3730 -0.0343 1.1951 -3.2859 -1.1440 -0.2224 20.5005 -0.2212 -0.4750 7.8767 0.5203 -0.2300 -2.9260 -1.7077 -3.6884 1.3553 2.8735 -4.7705 -17.9032 1.4260 -2.4388 -5.4984 0.0000 0.0000 0.0000 -20.2038 -69.3604 44.3150 100.5728 -59.5734 -69.1432 -0.0000 0.0000 -5.4349 24.1403 -26.3537 -11.2519 -7.1250 0.0000 -0.0000 -3.4594 1.5289 3.3720 0.0000 0.0000 0.0000 38.0644 50.7799 67.7008 -94.3700 59.9277 -63.7836 0.0000 0.0000 13.2119 -14.7381 -22.7416 5.8065 7.1250 -0.0000 -0.0000 14.7195 -52.8121 -2.8795
